<svg xmlns="http://www.w3.org/2000/svg" width="500" height="500" viewBox="0 0 500 500" fill="none" class="peeklink-theme-dark" lang="zh-CN">
    <g clip-path="url(#clip0_0_1)">
        <path d="M250.718 23.53L450.4 138.817L450.401 302.829L420.4 285.508L420.401 156.137L250.718 58.1709L81.0358 156.137L81.0359 352.069L250.719 450.035L362.757 385.349L392.757 402.67L250.718 484.676L51.0361 369.39L51.0367 138.816L250.718 23.53Z" fill="black"/>
        <path d="M189.91 119C197.634 119 243.983 119.702 243.983 119.702L247.461 131.792H256.471L258.55 119.702H312.61C315.613 122.31 318.986 129.089 308.451 135.347C295.283 143.17 278.649 143.881 274.491 164.504C273.936 166.211 271.488 172.8 270.332 175.882L231.52 163.793C229.441 162.133 225.144 158.246 224.589 155.97C223.896 153.126 212.807 141.036 187.163 131.792C183.589 130.503 184.994 119 189.91 119Z" fill="black"/>
        <path fill-rule="evenodd" clip-rule="evenodd" d="M267.845 203.161L267.841 203.047C267.772 200.646 267.708 198.426 272.072 193.438C277.69 188.522 277.69 185.011 272.072 182.904C272.072 182.904 236.96 171.769 234.151 170.966C229.938 169.762 225.022 171.668 222.476 175.18C222.213 176.584 222.558 177.035 222.915 177.989C229.235 189.225 229.235 185.011 231.342 200.461C231.342 202.146 232.747 203.504 233.449 203.972L267.859 213.101V203.972C267.859 203.696 267.852 203.427 267.845 203.161Z" fill="black"/>
        <path fill-rule="evenodd" clip-rule="evenodd" d="M266.963 239.015L266.96 238.91C266.895 236.688 266.835 234.633 270.929 230.017C276.199 225.468 276.199 222.219 270.929 220.27C270.929 220.27 237.993 209.965 235.358 209.222C231.406 208.108 226.795 209.872 224.406 213.121C224.16 214.421 224.483 214.838 224.819 215.721C230.747 226.118 230.747 222.219 232.723 236.516C232.723 238.076 234.041 239.332 234.699 239.765L266.977 248.213V239.765C266.977 239.51 266.97 239.261 266.963 239.015Z" fill="black"/>
        <path fill-rule="evenodd" clip-rule="evenodd" d="M268.183 306.958L268.18 306.846C268.111 304.464 268.047 302.261 272.412 297.313C278.032 292.436 278.032 288.953 272.412 286.863C272.412 286.863 237.288 275.817 234.478 275.02C230.263 273.826 225.346 275.717 222.798 279.2C222.536 280.594 222.88 281.041 223.238 281.987C229.56 293.133 229.56 288.953 231.668 304.279C231.668 305.951 233.073 307.298 233.775 307.763L268.198 316.819V307.763C268.198 307.489 268.191 307.222 268.183 306.958Z" fill="black"/>
        <path fill-rule="evenodd" clip-rule="evenodd" d="M264.814 340.796L264.811 340.698C264.752 338.635 264.697 336.727 268.449 332.441C273.28 328.217 273.28 325.199 268.449 323.389C268.449 323.389 238.258 313.82 235.843 313.131C232.22 312.096 227.993 313.734 225.804 316.751C225.578 317.958 225.874 318.346 226.182 319.165C231.616 328.82 231.616 325.2 233.427 338.475C233.427 339.923 234.635 341.09 235.239 341.492L264.827 349.337V341.492C264.827 341.256 264.821 341.024 264.814 340.796Z" fill="black"/>
        <path fill-rule="evenodd" clip-rule="evenodd" d="M265.717 340.873L265.715 340.775C265.655 338.712 265.6 336.804 269.353 332.518C274.183 328.294 274.183 325.277 269.353 323.466C269.353 323.466 239.161 313.897 236.746 313.208C233.123 312.173 228.896 313.811 226.707 316.828C226.481 318.035 226.777 318.423 227.085 319.242C232.519 328.897 232.519 325.277 234.331 338.552C234.331 340.001 235.538 341.167 236.142 341.569L265.73 349.414V341.569C265.73 341.333 265.724 341.101 265.717 340.873Z" fill="black"/>
        <path fill-rule="evenodd" clip-rule="evenodd" d="M263.105 368.795L263.103 368.713C263.052 366.967 263.005 365.352 266.189 361.726C270.288 358.151 270.288 355.598 266.189 354.067C266.189 354.067 240.573 345.97 238.523 345.386C235.449 344.511 231.863 345.897 230.005 348.45C229.813 349.471 230.065 349.799 230.326 350.492C234.937 358.662 234.937 355.598 236.474 366.832C236.474 368.057 237.498 369.044 238.011 369.385L263.115 376.022V369.385C263.115 369.184 263.11 368.989 263.105 368.795Z" fill="black"/>
        <path d="M262.241 381.64L239.067 373.214C236.96 372.447 234.151 375.32 235.556 378.831C236.679 381.64 244.451 408.092 248.196 420.966L248.898 425.882H251.005L255.921 402.708C256.389 400.133 258.168 393.86 261.539 389.365C264.91 384.871 263.411 382.343 262.241 381.64Z" fill="black"/>
        <g clip-path="url(#clip1_0_1)">
            <path d="M142.646 289.466H137.007C136.86 289.466 136.787 289.385 136.787 289.222V260.706H130.293C130.13 260.706 130.049 260.625 130.049 260.462L130.098 254.871C130.098 254.741 130.163 254.676 130.293 254.676H149.287C149.466 254.676 149.556 254.741 149.556 254.871V260.462C149.556 260.625 149.491 260.706 149.36 260.706H142.793L142.842 289.222C142.842 289.385 142.777 289.466 142.646 289.466ZM178.354 289.466H162.192C162.062 289.466 161.997 289.385 161.997 289.222L162.046 254.871C162.046 254.741 162.111 254.676 162.241 254.676H178.306C178.436 254.676 178.501 254.757 178.501 254.92V260.511C178.501 260.641 178.436 260.706 178.306 260.706H168.052V268.519H178.306C178.436 268.519 178.501 268.584 178.501 268.714L178.55 274.378C178.55 274.508 178.485 274.573 178.354 274.573H168.052V283.314H178.354C178.485 283.314 178.55 283.395 178.55 283.558V289.271C178.55 289.401 178.485 289.466 178.354 289.466ZM198.853 289.466H193.188C193.058 289.466 192.993 289.385 192.993 289.222L193.091 254.871C193.091 254.741 193.156 254.676 193.286 254.676H203.394C205.2 254.676 206.86 255.115 208.374 255.994C209.888 256.873 211.092 258.053 211.987 259.534C212.899 261.015 213.354 262.692 213.354 264.564C213.354 265.784 213.167 266.891 212.793 267.884C212.419 268.877 211.979 269.715 211.475 270.399C210.986 271.082 210.539 271.587 210.132 271.912C211.938 273.914 212.842 276.266 212.842 278.968L212.891 289.222C212.891 289.385 212.809 289.466 212.646 289.466H206.982C206.852 289.466 206.787 289.417 206.787 289.319V278.968C206.787 277.763 206.364 276.722 205.518 275.843C204.671 274.964 203.63 274.525 202.393 274.525H199.097L199.048 289.222C199.048 289.385 198.983 289.466 198.853 289.466ZM203.394 260.657H199.097V268.519H203.394C204.419 268.519 205.33 268.136 206.128 267.371C206.942 266.606 207.349 265.67 207.349 264.564C207.349 263.506 206.958 262.594 206.177 261.829C205.396 261.048 204.468 260.657 203.394 260.657ZM232.974 289.466H227.31C227.179 289.466 227.114 289.385 227.114 289.222L227.212 254.871C227.212 254.741 227.277 254.676 227.407 254.676H233.511C233.641 254.676 233.755 254.741 233.853 254.871L238.418 261.463L242.959 254.871C243.057 254.741 243.179 254.676 243.325 254.676H249.453C249.6 254.676 249.673 254.741 249.673 254.871L249.771 289.222C249.771 289.385 249.705 289.466 249.575 289.466H243.911C243.781 289.466 243.716 289.385 243.716 289.222L243.667 263.709L238.418 271.326L233.218 263.709L233.169 289.222C233.169 289.385 233.104 289.466 232.974 289.466ZM269.878 289.466H264.214C264.051 289.466 263.97 289.385 263.97 289.222L264.019 254.871C264.019 254.741 264.084 254.676 264.214 254.676H269.829C269.959 254.676 270.024 254.741 270.024 254.871L270.073 289.222C270.073 289.385 270.008 289.466 269.878 289.466ZM289.912 289.466H284.907C284.647 289.466 284.517 289.352 284.517 289.124L284.468 255.067C284.468 254.806 284.598 254.676 284.858 254.676H289.375L297.822 274.378L297.578 255.067C297.578 254.806 297.725 254.676 298.018 254.676H302.974C303.169 254.676 303.267 254.806 303.267 255.067L303.315 289.173C303.315 289.368 303.234 289.466 303.071 289.466H298.677L290.01 271.058L290.376 289.075C290.376 289.336 290.221 289.466 289.912 289.466ZM315.977 289.222L322.178 254.871C322.21 254.741 322.292 254.676 322.422 254.676H329.673C329.803 254.676 329.884 254.741 329.917 254.871L335.874 289.222C335.89 289.385 335.825 289.466 335.679 289.466H330.137C329.974 289.466 329.884 289.385 329.868 289.222L329.331 285.56H322.52L321.982 289.222C321.966 289.385 321.885 289.466 321.738 289.466H316.172C316.042 289.466 315.977 289.385 315.977 289.222ZM326.279 266.175L325.986 264.319L325.767 266.175L323.521 280.213H328.33L326.279 266.175ZM365.356 289.466H349.194C349.064 289.466 348.999 289.385 348.999 289.222L349.048 254.92C349.048 254.757 349.129 254.676 349.292 254.676H354.858C355.021 254.676 355.103 254.757 355.103 254.92L355.054 283.314H365.356C365.519 283.314 365.601 283.395 365.601 283.558V289.222C365.601 289.385 365.519 289.466 365.356 289.466Z" fill="black"/>
            <path d="M136.787 260.706H137.787V259.706H136.787V260.706ZM130.049 260.462L129.049 260.453V260.462H130.049ZM130.098 254.871L131.098 254.88V254.871H130.098ZM142.793 260.706V259.706H141.791L141.793 260.708L142.793 260.706ZM142.842 289.222H143.842L143.842 289.22L142.842 289.222ZM142.646 289.466V288.466H137.007V289.466V290.466H142.646V289.466ZM137.007 289.466V288.466C137.117 288.466 137.374 288.501 137.585 288.736C137.779 288.951 137.787 289.174 137.787 289.222H136.787H135.787C135.787 289.433 135.832 289.778 136.099 290.074C136.383 290.39 136.751 290.466 137.007 290.466V289.466ZM136.787 289.222H137.787V260.706H136.787H135.787V289.222H136.787ZM136.787 260.706V259.706H130.293V260.706V261.706H136.787V260.706ZM130.293 260.706V259.706C130.366 259.706 130.604 259.725 130.817 259.938C131.03 260.151 131.049 260.389 131.049 260.462H130.049H129.049C129.049 260.698 129.108 261.058 129.403 261.352C129.697 261.647 130.057 261.706 130.293 261.706V260.706ZM130.049 260.462L131.049 260.471L131.098 254.88L130.098 254.871L129.098 254.863L129.049 260.453L130.049 260.462ZM130.098 254.871H131.098C131.098 254.96 131.075 255.211 130.854 255.432C130.632 255.653 130.382 255.676 130.293 255.676V254.676V253.676C130.074 253.676 129.726 253.731 129.439 254.018C129.153 254.304 129.098 254.652 129.098 254.871H130.098ZM130.293 254.676V255.676H149.287V254.676V253.676H130.293V254.676ZM149.287 254.676V255.676C149.285 255.676 149.103 255.681 148.9 255.533C148.788 255.452 148.692 255.339 148.63 255.202C148.57 255.071 148.556 254.953 148.556 254.871H149.556H150.556C150.556 254.55 150.428 254.172 150.077 253.916C149.785 253.704 149.468 253.676 149.287 253.676V254.676ZM149.556 254.871H148.556V260.462H149.556H150.556V254.871H149.556ZM149.556 260.462H148.556C148.556 260.437 148.556 260.232 148.726 260.02C148.93 259.766 149.205 259.706 149.36 259.706V260.706V261.706C149.646 261.706 150.019 261.606 150.288 261.27C150.522 260.977 150.556 260.65 150.556 260.462H149.556ZM149.36 260.706V259.706H142.793V260.706V261.706H149.36V260.706ZM142.793 260.706L141.793 260.708L141.842 289.224L142.842 289.222L143.842 289.22L143.793 260.704L142.793 260.706ZM142.842 289.222H141.842C141.842 289.196 141.843 288.992 142.012 288.78C142.216 288.526 142.491 288.466 142.646 288.466V289.466V290.466C142.932 290.466 143.305 290.366 143.574 290.03C143.809 289.736 143.842 289.41 143.842 289.222H142.842ZM161.997 289.222L160.997 289.22V289.222H161.997ZM162.046 254.871L163.046 254.873V254.871H162.046ZM168.052 260.706V259.706H167.052V260.706H168.052ZM168.052 268.519H167.052V269.519H168.052V268.519ZM178.501 268.714H177.501L177.501 268.723L178.501 268.714ZM178.55 274.378H179.55L179.55 274.369L178.55 274.378ZM168.052 274.573V273.573H167.052V274.573H168.052ZM168.052 283.314H167.052V284.314H168.052V283.314ZM178.354 289.466V288.466H162.192V289.466V290.466H178.354V289.466ZM162.192 289.466V288.466C162.348 288.466 162.623 288.526 162.827 288.78C162.996 288.992 162.997 289.196 162.997 289.222H161.997H160.997C160.997 289.41 161.03 289.736 161.265 290.03C161.534 290.366 161.907 290.466 162.192 290.466V289.466ZM161.997 289.222L162.997 289.223L163.046 254.873L162.046 254.871L161.046 254.87L160.997 289.22L161.997 289.222ZM162.046 254.871H163.046C163.046 254.96 163.023 255.211 162.802 255.432C162.581 255.653 162.33 255.676 162.241 255.676V254.676V253.676C162.022 253.676 161.674 253.731 161.388 254.018C161.101 254.304 161.046 254.652 161.046 254.871H162.046ZM162.241 254.676V255.676H178.306V254.676V253.676H162.241V254.676ZM178.306 254.676V255.676C178.15 255.676 177.875 255.616 177.671 255.362C177.502 255.15 177.501 254.946 177.501 254.92H178.501H179.501C179.501 254.732 179.468 254.406 179.233 254.112C178.964 253.776 178.591 253.676 178.306 253.676V254.676ZM178.501 254.92H177.501V260.511H178.501H179.501V254.92H178.501ZM178.501 260.511H177.501C177.501 260.422 177.524 260.171 177.745 259.95C177.966 259.729 178.217 259.706 178.306 259.706V260.706V261.706C178.525 261.706 178.873 261.651 179.159 261.364C179.445 261.078 179.501 260.73 179.501 260.511H178.501ZM178.306 260.706V259.706H168.052V260.706V261.706H178.306V260.706ZM168.052 260.706H167.052V268.519H168.052H169.052V260.706H168.052ZM168.052 268.519V269.519H178.306V268.519V267.519H168.052V268.519ZM178.306 268.519V269.519C178.217 269.519 177.966 269.496 177.745 269.275C177.524 269.054 177.501 268.803 177.501 268.714H178.501H179.501C179.501 268.495 179.445 268.147 179.159 267.86C178.873 267.574 178.525 267.519 178.306 267.519V268.519ZM178.501 268.714L177.501 268.723L177.55 274.387L178.55 274.378L179.55 274.369L179.501 268.705L178.501 268.714ZM178.55 274.378H177.55C177.55 274.289 177.573 274.039 177.794 273.817C178.015 273.596 178.265 273.573 178.354 273.573V274.573V275.573C178.574 275.573 178.922 275.518 179.208 275.232C179.494 274.945 179.55 274.597 179.55 274.378H178.55ZM178.354 274.573V273.573H168.052V274.573V275.573H178.354V274.573ZM168.052 274.573H167.052V283.314H168.052H169.052V274.573H168.052ZM168.052 283.314V284.314H178.354V283.314V282.314H168.052V283.314ZM178.354 283.314V284.314C178.199 284.314 177.924 284.254 177.72 283.999C177.551 283.787 177.55 283.583 177.55 283.558H178.55H179.55C179.55 283.37 179.517 283.043 179.282 282.75C179.013 282.414 178.64 282.314 178.354 282.314V283.314ZM178.55 283.558H177.55V289.271H178.55H179.55V283.558H178.55ZM178.55 289.271H177.55C177.55 289.182 177.573 288.931 177.794 288.71C178.015 288.489 178.265 288.466 178.354 288.466V289.466V290.466C178.574 290.466 178.922 290.41 179.208 290.124C179.494 289.838 179.55 289.49 179.55 289.271H178.55ZM192.993 289.222L191.993 289.219V289.222H192.993ZM193.091 254.871L194.091 254.874V254.871H193.091ZM211.987 259.534L211.131 260.052L211.136 260.058L211.987 259.534ZM211.475 270.399L210.67 269.805L210.665 269.811L210.661 269.817L211.475 270.399ZM210.132 271.912L209.507 271.131L208.678 271.794L209.389 272.582L210.132 271.912ZM212.842 278.968H211.842L211.842 278.973L212.842 278.968ZM212.891 289.222H213.891L213.891 289.217L212.891 289.222ZM199.097 274.525V273.525H198.1L198.097 274.521L199.097 274.525ZM199.048 289.222L198.048 289.219V289.222H199.048ZM199.097 260.657V259.657H198.097V260.657H199.097ZM199.097 268.519H198.097V269.519H199.097V268.519ZM206.128 267.371L205.443 266.643L205.436 266.65L206.128 267.371ZM206.177 261.829L205.47 262.536L205.477 262.544L206.177 261.829ZM198.853 289.466V288.466H193.188V289.466V290.466H198.853V289.466ZM193.188 289.466V288.466C193.344 288.466 193.619 288.526 193.823 288.78C193.992 288.992 193.993 289.196 193.993 289.222H192.993H191.993C191.993 289.41 192.026 289.736 192.261 290.03C192.53 290.366 192.903 290.466 193.188 290.466V289.466ZM192.993 289.222L193.993 289.225L194.091 254.874L193.091 254.871L192.091 254.868L191.993 289.219L192.993 289.222ZM193.091 254.871H194.091C194.091 254.96 194.068 255.211 193.847 255.432C193.626 255.653 193.375 255.676 193.286 255.676V254.676V253.676C193.067 253.676 192.719 253.731 192.433 254.018C192.146 254.304 192.091 254.652 192.091 254.871H193.091ZM193.286 254.676V255.676H203.394V254.676V253.676H193.286V254.676ZM203.394 254.676V255.676C205.03 255.676 206.516 256.072 207.872 256.859L208.374 255.994L208.876 255.13C207.205 254.159 205.371 253.676 203.394 253.676V254.676ZM208.374 255.994L207.872 256.859C209.242 257.655 210.324 258.716 211.131 260.052L211.987 259.534L212.843 259.017C211.86 257.391 210.533 256.092 208.876 255.13L208.374 255.994ZM211.987 259.534L211.136 260.058C211.943 261.37 212.354 262.862 212.354 264.564H213.354H214.354C214.354 262.521 213.855 260.661 212.839 259.01L211.987 259.534ZM213.354 264.564H212.354C212.354 265.682 212.183 266.667 211.857 267.531L212.793 267.884L213.729 268.237C214.151 267.116 214.354 265.887 214.354 264.564H213.354ZM212.793 267.884L211.857 267.531C211.508 268.458 211.108 269.211 210.67 269.805L211.475 270.399L212.279 270.992C212.85 270.219 213.33 269.295 213.729 268.237L212.793 267.884ZM211.475 270.399L210.661 269.817C210.198 270.466 209.812 270.888 209.507 271.131L210.132 271.912L210.757 272.693C211.266 272.286 211.775 271.699 212.288 270.98L211.475 270.399ZM210.132 271.912L209.389 272.582C211.03 274.4 211.842 276.513 211.842 278.968H212.842H213.842C213.842 276.019 212.847 273.428 210.874 271.242L210.132 271.912ZM212.842 278.968L211.842 278.973L211.891 289.227L212.891 289.222L213.891 289.217L213.842 278.963L212.842 278.968ZM212.891 289.222H211.891C211.891 289.149 211.909 288.911 212.122 288.698C212.335 288.485 212.574 288.466 212.646 288.466V289.466V290.466C212.882 290.466 213.242 290.406 213.537 290.112C213.831 289.818 213.891 289.457 213.891 289.222H212.891ZM212.646 289.466V288.466H206.982V289.466V290.466H212.646V289.466ZM206.982 289.466V288.466C207.013 288.466 207.219 288.467 207.436 288.629C207.707 288.833 207.787 289.124 207.787 289.319H206.787H205.787C205.787 289.612 205.9 289.977 206.236 290.229C206.518 290.441 206.821 290.466 206.982 290.466V289.466ZM206.787 289.319H207.787V278.968H206.787H205.787V289.319H206.787ZM206.787 278.968H207.787C207.787 277.501 207.261 276.212 206.238 275.149L205.518 275.843L204.797 276.537C205.467 277.232 205.787 278.026 205.787 278.968H206.787ZM205.518 275.843L206.238 275.149C205.2 274.072 203.897 273.525 202.393 273.525V274.525V275.525C203.362 275.525 204.142 275.856 204.797 276.537L205.518 275.843ZM202.393 274.525V273.525H199.097V274.525V275.525H202.393V274.525ZM199.097 274.525L198.097 274.521L198.048 289.219L199.048 289.222L200.048 289.225L200.097 274.528L199.097 274.525ZM199.048 289.222H198.048C198.048 289.196 198.049 288.992 198.218 288.78C198.422 288.526 198.697 288.466 198.853 288.466V289.466V290.466C199.138 290.466 199.511 290.366 199.78 290.03C200.015 289.736 200.048 289.41 200.048 289.222H199.048ZM203.394 260.657V259.657H199.097V260.657V261.657H203.394V260.657ZM199.097 260.657H198.097V268.519H199.097H200.097V260.657H199.097ZM199.097 268.519V269.519H203.394V268.519V267.519H199.097V268.519ZM203.394 268.519V269.519C204.698 269.519 205.852 269.021 206.82 268.093L206.128 267.371L205.436 266.65C204.808 267.251 204.14 267.519 203.394 267.519V268.519ZM206.128 267.371L206.813 268.1C207.826 267.148 208.349 265.949 208.349 264.564H207.349H206.349C206.349 265.392 206.058 266.065 205.443 266.643L206.128 267.371ZM207.349 264.564H208.349C208.349 263.227 207.843 262.061 206.876 261.115L206.177 261.829L205.477 262.544C206.073 263.128 206.349 263.784 206.349 264.564H207.349ZM206.177 261.829L206.884 261.122C205.921 260.159 204.741 259.657 203.394 259.657V260.657V261.657C204.194 261.657 204.87 261.937 205.47 262.536L206.177 261.829ZM227.114 289.222L226.114 289.219V289.222H227.114ZM227.212 254.871L228.212 254.874V254.871H227.212ZM233.853 254.871L234.675 254.302L234.664 254.286L234.653 254.271L233.853 254.871ZM238.418 261.463L237.596 262.032L238.42 263.223L239.241 262.03L238.418 261.463ZM242.959 254.871L242.159 254.271L242.147 254.287L242.135 254.304L242.959 254.871ZM249.673 254.871H248.673L248.673 254.874L249.673 254.871ZM249.771 289.222H250.771L250.771 289.219L249.771 289.222ZM243.716 289.222H244.716V289.22L243.716 289.222ZM243.667 263.709L244.667 263.707L244.661 260.505L242.844 263.142L243.667 263.709ZM238.418 271.326L237.592 271.89L238.414 273.094L239.241 271.894L238.418 271.326ZM233.218 263.709L234.044 263.145L232.224 260.48L232.218 263.707L233.218 263.709ZM233.169 289.222L232.169 289.22V289.222H233.169ZM232.974 289.466V288.466H227.31V289.466V290.466H232.974V289.466ZM227.31 289.466V288.466C227.465 288.466 227.74 288.526 227.944 288.78C228.114 288.992 228.114 289.196 228.114 289.222H227.114H226.114C226.114 289.41 226.148 289.736 226.382 290.03C226.651 290.366 227.024 290.466 227.31 290.466V289.466ZM227.114 289.222L228.114 289.225L228.212 254.874L227.212 254.871L226.212 254.868L226.114 289.219L227.114 289.222ZM227.212 254.871H228.212C228.212 254.96 228.189 255.211 227.968 255.432C227.747 255.653 227.496 255.676 227.407 255.676V254.676V253.676C227.188 253.676 226.84 253.731 226.554 254.018C226.267 254.304 226.212 254.652 226.212 254.871H227.212ZM227.407 254.676V255.676H233.511V254.676V253.676H227.407V254.676ZM233.511 254.676V255.676C233.4 255.676 233.291 255.646 233.198 255.593C233.111 255.544 233.067 255.49 233.053 255.471L233.853 254.871L234.653 254.271C234.418 253.959 234.034 253.676 233.511 253.676V254.676ZM233.853 254.871L233.03 255.441L237.596 262.032L238.418 261.463L239.24 260.894L234.675 254.302L233.853 254.871ZM238.418 261.463L239.241 262.03L243.782 255.439L242.959 254.871L242.135 254.304L237.594 260.896L238.418 261.463ZM242.959 254.871L243.759 255.471C243.735 255.503 243.683 255.56 243.594 255.607C243.502 255.656 243.406 255.676 243.325 255.676V254.676V253.676C242.826 253.676 242.421 253.921 242.159 254.271L242.959 254.871ZM243.325 254.676V255.676H249.453V254.676V253.676H243.325V254.676ZM249.453 254.676V255.676C249.399 255.676 249.172 255.667 248.954 255.472C248.712 255.258 248.673 254.993 248.673 254.871H249.673H250.673C250.673 254.619 250.597 254.257 250.282 253.977C249.99 253.718 249.653 253.676 249.453 253.676V254.676ZM249.673 254.871L248.673 254.874L248.771 289.225L249.771 289.222L250.771 289.219L250.673 254.868L249.673 254.871ZM249.771 289.222H248.771C248.771 289.196 248.771 288.992 248.941 288.78C249.144 288.526 249.42 288.466 249.575 288.466V289.466V290.466C249.861 290.466 250.234 290.366 250.503 290.03C250.737 289.736 250.771 289.41 250.771 289.222H249.771ZM249.575 289.466V288.466H243.911V289.466V290.466H249.575V289.466ZM243.911 289.466V288.466C244.067 288.466 244.342 288.526 244.546 288.78C244.715 288.992 244.716 289.196 244.716 289.222H243.716H242.716C242.716 289.41 242.749 289.736 242.984 290.03C243.253 290.366 243.625 290.466 243.911 290.466V289.466ZM243.716 289.222L244.716 289.22L244.667 263.707L243.667 263.709L242.667 263.711L242.716 289.224L243.716 289.222ZM243.667 263.709L242.844 263.142L237.595 270.759L238.418 271.326L239.241 271.894L244.49 264.277L243.667 263.709ZM238.418 271.326L239.244 270.762L234.044 263.145L233.218 263.709L232.392 264.273L237.592 271.89L238.418 271.326ZM233.218 263.709L232.218 263.707L232.169 289.22L233.169 289.222L234.169 289.224L234.218 263.711L233.218 263.709ZM233.169 289.222H232.169C232.169 289.196 232.17 288.992 232.339 288.78C232.543 288.526 232.818 288.466 232.974 288.466V289.466V290.466C233.259 290.466 233.632 290.366 233.901 290.03C234.136 289.736 234.169 289.41 234.169 289.222H233.169ZM263.97 289.222L262.97 289.22V289.222H263.97ZM264.019 254.871L265.019 254.873V254.871H264.019ZM270.024 254.871H269.024V254.873L270.024 254.871ZM270.073 289.222H271.073V289.22L270.073 289.222ZM269.878 289.466V288.466H264.214V289.466V290.466H269.878V289.466ZM264.214 289.466V288.466C264.287 288.466 264.525 288.485 264.738 288.698C264.951 288.911 264.97 289.149 264.97 289.222H263.97H262.97C262.97 289.457 263.029 289.818 263.324 290.112C263.618 290.406 263.978 290.466 264.214 290.466V289.466ZM263.97 289.222L264.97 289.223L265.019 254.873L264.019 254.871L263.019 254.87L262.97 289.22L263.97 289.222ZM264.019 254.871H265.019C265.019 254.96 264.996 255.211 264.774 255.432C264.553 255.653 264.303 255.676 264.214 255.676V254.676V253.676C263.995 253.676 263.647 253.731 263.36 254.018C263.074 254.304 263.019 254.652 263.019 254.871H264.019ZM264.214 254.676V255.676H269.829V254.676V253.676H264.214V254.676ZM269.829 254.676V255.676C269.74 255.676 269.49 255.653 269.268 255.432C269.047 255.211 269.024 254.96 269.024 254.871H270.024H271.024C271.024 254.652 270.969 254.304 270.683 254.018C270.396 253.731 270.048 253.676 269.829 253.676V254.676ZM270.024 254.871L269.024 254.873L269.073 289.223L270.073 289.222L271.073 289.22L271.024 254.87L270.024 254.871ZM270.073 289.222H269.073C269.073 289.196 269.074 288.992 269.244 288.78C269.447 288.526 269.722 288.466 269.878 288.466V289.466V290.466C270.164 290.466 270.537 290.366 270.805 290.03C271.04 289.736 271.073 289.41 271.073 289.222H270.073ZM284.517 289.124H285.517V289.123L284.517 289.124ZM284.468 255.067H283.468V255.068L284.468 255.067ZM289.375 254.676L290.294 254.282L290.034 253.676H289.375V254.676ZM297.822 274.378L296.903 274.772L298.822 274.365L297.822 274.378ZM297.578 255.067H296.578L296.578 255.079L297.578 255.067ZM303.267 255.067H302.267V255.068L303.267 255.067ZM303.315 289.173H304.315V289.172L303.315 289.173ZM298.677 289.466L297.772 289.892L298.042 290.466H298.677V289.466ZM290.01 271.058L290.915 270.632L289.01 271.078L290.01 271.058ZM290.376 289.075H291.376V289.065L291.376 289.055L290.376 289.075ZM289.912 289.466V288.466H284.907V289.466V290.466H289.912V289.466ZM284.907 289.466V288.466C284.912 288.466 284.953 288.466 285.016 288.485C285.083 288.504 285.178 288.545 285.273 288.628C285.488 288.817 285.517 289.047 285.517 289.124H284.517H283.517C283.517 289.43 283.61 289.831 283.956 290.133C284.276 290.413 284.653 290.466 284.907 290.466V289.466ZM284.517 289.124L285.517 289.123L285.468 255.065L284.468 255.067L283.468 255.068L283.517 289.126L284.517 289.124ZM284.468 255.067H285.468C285.468 255.09 285.461 255.292 285.273 255.481C285.084 255.669 284.882 255.676 284.858 255.676V254.676V253.676C284.574 253.676 284.177 253.748 283.858 254.066C283.54 254.385 283.468 254.782 283.468 255.067H284.468ZM284.858 254.676V255.676H289.375V254.676V253.676H284.858V254.676ZM289.375 254.676L288.456 255.07L296.903 274.772L297.822 274.378L298.741 273.984L290.294 254.282L289.375 254.676ZM297.822 274.378L298.822 274.365L298.578 255.054L297.578 255.067L296.578 255.079L296.822 274.391L297.822 274.378ZM297.578 255.067H298.578C298.578 255.123 298.557 255.339 298.352 255.521C298.262 255.601 298.172 255.641 298.109 255.659C298.079 255.668 298.055 255.672 298.041 255.674C298.026 255.676 298.018 255.676 298.018 255.676V254.676V253.676C297.744 253.676 297.352 253.734 297.024 254.026C296.673 254.338 296.578 254.75 296.578 255.067H297.578ZM298.018 254.676V255.676H302.974V254.676V253.676H298.018V254.676ZM302.974 254.676V255.676C302.912 255.676 302.812 255.666 302.696 255.614C302.574 255.56 302.47 255.475 302.393 255.374C302.255 255.189 302.267 255.033 302.267 255.067H303.267H304.267C304.267 254.84 304.229 254.488 303.993 254.174C303.717 253.805 303.315 253.676 302.974 253.676V254.676ZM303.267 255.067L302.267 255.068L302.315 289.174L303.315 289.173L304.315 289.172L304.267 255.065L303.267 255.067ZM303.315 289.173H302.315C302.315 289.156 302.315 288.958 302.486 288.753C302.686 288.512 302.946 288.466 303.071 288.466V289.466V290.466C303.36 290.466 303.741 290.371 304.023 290.033C304.275 289.73 304.315 289.385 304.315 289.173H303.315ZM303.071 289.466V288.466H298.677V289.466V290.466H303.071V289.466ZM298.677 289.466L299.581 289.04L290.915 270.632L290.01 271.058L289.105 271.484L297.772 289.892L298.677 289.466ZM290.01 271.058L289.01 271.078L289.376 289.096L290.376 289.075L291.376 289.055L291.01 271.037L290.01 271.058ZM290.376 289.075H289.376C289.376 289.002 289.406 288.78 289.616 288.603C289.793 288.454 289.951 288.466 289.912 288.466V289.466V290.466C290.183 290.466 290.572 290.413 290.904 290.133C291.269 289.826 291.376 289.409 291.376 289.075H290.376ZM315.977 289.222L314.992 289.044L314.977 289.132V289.222H315.977ZM322.178 254.871L321.208 254.629L321.2 254.661L321.194 254.694L322.178 254.871ZM329.917 254.871L330.902 254.7L330.896 254.664L330.887 254.629L329.917 254.871ZM335.874 289.222L336.869 289.122L336.865 289.086L336.859 289.051L335.874 289.222ZM329.868 289.222L330.863 289.122L330.861 289.099L330.858 289.077L329.868 289.222ZM329.331 285.56L330.32 285.415L330.195 284.56H329.331V285.56ZM322.52 285.56V284.56H321.656L321.53 285.415L322.52 285.56ZM321.982 289.222L320.993 289.077L320.99 289.099L320.987 289.122L321.982 289.222ZM326.279 266.175L327.269 266.03L327.267 266.019L326.279 266.175ZM325.986 264.319L326.974 264.164L324.993 264.202L325.986 264.319ZM325.767 266.175L326.754 266.333L326.757 266.313L326.76 266.293L325.767 266.175ZM323.521 280.213L322.533 280.055L322.348 281.213H323.521V280.213ZM328.33 280.213V281.213H329.487L329.32 280.068L328.33 280.213ZM315.977 289.222L316.961 289.399L323.162 255.049L322.178 254.871L321.194 254.694L314.992 289.044L315.977 289.222ZM322.178 254.871L323.148 255.114C323.126 255.2 323.062 255.366 322.888 255.506C322.711 255.647 322.526 255.676 322.422 255.676V254.676V253.676C322.188 253.676 321.897 253.737 321.638 253.944C321.383 254.148 321.262 254.413 321.208 254.629L322.178 254.871ZM322.422 254.676V255.676H329.673V254.676V253.676H322.422V254.676ZM329.673 254.676V255.676C329.569 255.676 329.384 255.647 329.207 255.506C329.033 255.366 328.968 255.2 328.947 255.114L329.917 254.871L330.887 254.629C330.833 254.413 330.712 254.148 330.456 253.944C330.198 253.737 329.907 253.676 329.673 253.676V254.676ZM329.917 254.871L328.932 255.042L334.889 289.393L335.874 289.222L336.859 289.051L330.902 254.7L329.917 254.871ZM335.874 289.222L334.879 289.321C334.875 289.286 334.854 289.034 335.057 288.78C335.282 288.498 335.578 288.466 335.679 288.466V289.466V290.466C335.926 290.466 336.328 290.393 336.618 290.03C336.886 289.695 336.889 289.321 336.869 289.122L335.874 289.222ZM335.679 289.466V288.466H330.137V289.466V290.466H335.679V289.466ZM330.137 289.466V288.466C330.217 288.466 330.425 288.488 330.62 288.665C330.814 288.842 330.855 289.045 330.863 289.122L329.868 289.222L328.873 289.321C328.897 289.561 328.991 289.887 329.275 290.145C329.559 290.404 329.894 290.466 330.137 290.466V289.466ZM329.868 289.222L330.858 289.077L330.32 285.415L329.331 285.56L328.342 285.705L328.879 289.367L329.868 289.222ZM329.331 285.56V284.56H322.52V285.56V286.56H329.331V285.56ZM322.52 285.56L321.53 285.415L320.993 289.077L321.982 289.222L322.972 289.367L323.509 285.705L322.52 285.56ZM321.982 289.222L320.987 289.122C320.993 289.069 321.023 288.877 321.202 288.698C321.397 288.503 321.622 288.466 321.738 288.466V289.466V290.466C322.001 290.466 322.34 290.388 322.616 290.112C322.877 289.851 322.956 289.538 322.977 289.321L321.982 289.222ZM321.738 289.466V288.466H316.172V289.466V290.466H321.738V289.466ZM316.172 289.466V288.466C316.327 288.466 316.603 288.526 316.806 288.78C316.976 288.992 316.977 289.196 316.977 289.222H315.977H314.977C314.977 289.41 315.01 289.736 315.245 290.03C315.513 290.366 315.886 290.466 316.172 290.466V289.466ZM326.279 266.175L327.267 266.019L326.974 264.164L325.986 264.319L324.999 264.475L325.292 266.331L326.279 266.175ZM325.986 264.319L324.993 264.202L324.774 266.057L325.767 266.175L326.76 266.293L326.979 264.437L325.986 264.319ZM325.767 266.175L324.779 266.017L322.533 280.055L323.521 280.213L324.508 280.371L326.754 266.333L325.767 266.175ZM323.521 280.213V281.213H328.33V280.213V279.213H323.521V280.213ZM328.33 280.213L329.32 280.068L327.269 266.03L326.279 266.175L325.29 266.32L327.341 280.358L328.33 280.213ZM348.999 289.222L347.999 289.22V289.222H348.999ZM349.048 254.92L350.048 254.921V254.92H349.048ZM355.103 254.92L356.103 254.922V254.92H355.103ZM355.054 283.314L354.054 283.312L354.052 284.314H355.054V283.314ZM365.356 289.466V288.466H349.194V289.466V290.466H365.356V289.466ZM349.194 289.466V288.466C349.35 288.466 349.625 288.526 349.829 288.78C349.998 288.992 349.999 289.196 349.999 289.222H348.999H347.999C347.999 289.41 348.032 289.736 348.267 290.03C348.536 290.366 348.909 290.466 349.194 290.466V289.466ZM348.999 289.222L349.999 289.223L350.048 254.921L349.048 254.92L348.048 254.919L347.999 289.22L348.999 289.222ZM349.048 254.92H350.048C350.048 254.993 350.029 255.231 349.816 255.444C349.603 255.657 349.365 255.676 349.292 255.676V254.676V253.676C349.056 253.676 348.696 253.735 348.402 254.03C348.107 254.324 348.048 254.685 348.048 254.92H349.048ZM349.292 254.676V255.676H354.858V254.676V253.676H349.292V254.676ZM354.858 254.676V255.676C354.786 255.676 354.547 255.657 354.334 255.444C354.121 255.231 354.103 254.993 354.103 254.92H355.103H356.103C356.103 254.685 356.043 254.324 355.749 254.03C355.454 253.735 355.094 253.676 354.858 253.676V254.676ZM355.103 254.92L354.103 254.918L354.054 283.312L355.054 283.314L356.054 283.315L356.103 254.922L355.103 254.92ZM355.054 283.314V284.314H365.356V283.314V282.314H355.054V283.314ZM365.356 283.314V284.314C365.284 284.314 365.045 284.295 364.832 284.082C364.619 283.869 364.601 283.631 364.601 283.558H365.601H366.601C366.601 283.322 366.541 282.962 366.247 282.668C365.952 282.373 365.592 282.314 365.356 282.314V283.314ZM365.601 283.558H364.601V289.222H365.601H366.601V283.558H365.601ZM365.601 289.222H364.601C364.601 289.149 364.619 288.911 364.832 288.698C365.045 288.485 365.284 288.466 365.356 288.466V289.466V290.466C365.592 290.466 365.952 290.406 366.247 290.112C366.541 289.818 366.601 289.457 366.601 289.222H365.601Z" fill="black"/>
            <path d="M147.334 250.466H140.869C140.817 250.466 140.791 250.433 140.791 250.368L140.811 236.628C140.811 236.576 140.837 236.55 140.889 236.55H147.314C147.367 236.55 147.393 236.583 147.393 236.648V238.884C147.393 238.936 147.367 238.962 147.314 238.962H143.213V242.087H147.314C147.367 242.087 147.393 242.113 147.393 242.165L147.412 244.431C147.412 244.483 147.386 244.509 147.334 244.509H143.213V248.005H147.334C147.386 248.005 147.412 248.038 147.412 248.103V250.388C147.412 250.44 147.386 250.466 147.334 250.466ZM172.967 250.466H170.965C170.861 250.466 170.809 250.42 170.809 250.329L170.789 236.706C170.789 236.602 170.842 236.55 170.946 236.55H172.752L176.131 244.431L176.034 236.706C176.034 236.602 176.092 236.55 176.209 236.55H178.192C178.27 236.55 178.309 236.602 178.309 236.706L178.329 250.349C178.329 250.427 178.296 250.466 178.231 250.466H176.473L173.006 243.103L173.153 250.31C173.153 250.414 173.091 250.466 172.967 250.466ZM205.348 250.446L201.764 250.466C201.699 250.466 201.667 250.433 201.667 250.368L201.706 236.628C201.706 236.576 201.732 236.55 201.784 236.55L205.524 236.53C206.266 236.511 206.937 236.68 207.536 237.038C208.141 237.396 208.623 237.881 208.981 238.493C209.346 239.099 209.528 239.769 209.528 240.505V246.247C209.528 247.015 209.343 247.719 208.971 248.357C208.594 248.988 208.093 249.493 207.468 249.87C206.843 250.241 206.136 250.433 205.348 250.446ZM205.524 238.923L204.128 238.943L204.108 248.005H205.348C205.843 248.005 206.26 247.833 206.598 247.487C206.937 247.142 207.106 246.729 207.106 246.247V240.486C207.106 240.062 206.95 239.694 206.638 239.382C206.325 239.063 205.954 238.91 205.524 238.923ZM235.044 250.466H232.798C232.733 250.466 232.7 250.433 232.7 250.368L232.739 236.628C232.739 236.576 232.765 236.55 232.818 236.55H239.224C239.289 236.55 239.321 236.576 239.321 236.628V238.884C239.321 238.936 239.295 238.962 239.243 238.962H235.142V242.068H239.243C239.295 242.068 239.321 242.1 239.321 242.165L239.341 244.431C239.341 244.483 239.308 244.509 239.243 244.509H235.142V250.368C235.142 250.433 235.109 250.466 235.044 250.466ZM265.082 250.466H262.816C262.751 250.466 262.718 250.433 262.718 250.368L262.738 236.628C262.738 236.576 262.764 236.55 262.816 236.55H265.062C265.114 236.55 265.14 236.576 265.14 236.628L265.16 250.368C265.16 250.433 265.134 250.466 265.082 250.466ZM295.061 250.466H288.596C288.544 250.466 288.518 250.433 288.518 250.368L288.537 236.628C288.537 236.576 288.563 236.55 288.615 236.55H295.041C295.093 236.55 295.119 236.583 295.119 236.648V238.884C295.119 238.936 295.093 238.962 295.041 238.962H290.939V242.087H295.041C295.093 242.087 295.119 242.113 295.119 242.165L295.139 244.431C295.139 244.483 295.113 244.509 295.061 244.509H290.939V248.005H295.061C295.113 248.005 295.139 248.038 295.139 248.103V250.388C295.139 250.44 295.113 250.466 295.061 250.466ZM325.059 250.466H318.594C318.542 250.466 318.516 250.433 318.516 250.368L318.536 236.648C318.536 236.583 318.568 236.55 318.633 236.55H320.86C320.925 236.55 320.957 236.583 320.957 236.648L320.938 248.005H325.059C325.124 248.005 325.157 248.038 325.157 248.103V250.368C325.157 250.433 325.124 250.466 325.059 250.466ZM351.747 250.446L348.163 250.466C348.098 250.466 348.065 250.433 348.065 250.368L348.104 236.628C348.104 236.576 348.13 236.55 348.182 236.55L351.923 236.53C352.665 236.511 353.335 236.68 353.934 237.038C354.54 237.396 355.022 237.881 355.38 238.493C355.744 239.099 355.927 239.769 355.927 240.505V246.247C355.927 247.015 355.741 247.719 355.37 248.357C354.992 248.988 354.491 249.493 353.866 249.87C353.241 250.241 352.535 250.433 351.747 250.446ZM351.923 238.923L350.526 238.943L350.507 248.005H351.747C352.242 248.005 352.658 247.833 352.997 247.487C353.335 247.142 353.505 246.729 353.505 246.247V240.486C353.505 240.062 353.348 239.694 353.036 239.382C352.723 239.063 352.352 238.91 351.923 238.923Z" fill="black"/>
            <line x1="112" y1="243.466" x2="130" y2="243.466" stroke="black" stroke-width="2"/>
            <line x1="367" y1="243.466" x2="385" y2="243.466" stroke="black" stroke-width="2"/>
        </g>
    </g>
    <defs>
        <clipPath id="clip0_0_1">
            <rect width="500" height="500" fill="white"/>
        </clipPath>
        <clipPath id="clip1_0_1">
            <rect width="283.333" height="56.8627" fill="white" transform="translate(108 234.466)"/>
        </clipPath>
    </defs>
    <script xmlns=""/></svg>